<mxfile host="app.diagrams.net" modified="2023-04-21T05:29:56.676Z" agent="Mozilla/5.0 (Windows NT 10.0; Win64; x64) AppleWebKit/537.36 (KHTML, like Gecko) Chrome/112.0.0.0 Safari/537.36" etag="rqNCEZILWDKjXCl286ue" version="21.2.1" type="device">
  <diagram name="페이지-1" id="4YNyUgEepp4ZxcmxHSkv">
    <mxGraphModel dx="772" dy="778" grid="1" gridSize="10" guides="1" tooltips="1" connect="1" arrows="1" fold="1" page="1" pageScale="1" pageWidth="4681" pageHeight="3300" math="0" shadow="0">
      <root>
        <mxCell id="0" />
        <mxCell id="1" parent="0" />
        <mxCell id="xyK2maIC5X1sYyK8I1Wq-13" style="rounded=0;orthogonalLoop=1;jettySize=auto;html=1;entryX=0.5;entryY=0;entryDx=0;entryDy=0;exitX=0.5;exitY=1;exitDx=0;exitDy=0;" edge="1" parent="1" source="xyK2maIC5X1sYyK8I1Wq-2" target="xyK2maIC5X1sYyK8I1Wq-7">
          <mxGeometry relative="1" as="geometry">
            <mxPoint x="330" y="160" as="sourcePoint" />
            <mxPoint x="130" y="300" as="targetPoint" />
          </mxGeometry>
        </mxCell>
        <mxCell id="xyK2maIC5X1sYyK8I1Wq-34" value="" style="rounded=0;orthogonalLoop=1;jettySize=auto;html=1;entryX=0;entryY=1;entryDx=0;entryDy=0;exitX=0.5;exitY=0;exitDx=0;exitDy=0;" edge="1" parent="1" source="xyK2maIC5X1sYyK8I1Wq-2" target="xyK2maIC5X1sYyK8I1Wq-33">
          <mxGeometry relative="1" as="geometry">
            <mxPoint x="710" y="140" as="targetPoint" />
          </mxGeometry>
        </mxCell>
        <mxCell id="xyK2maIC5X1sYyK8I1Wq-2" value="학생" style="rounded=1;arcSize=10;whiteSpace=wrap;html=1;align=center;" vertex="1" parent="1">
          <mxGeometry x="580" y="120" width="100" height="40" as="geometry" />
        </mxCell>
        <mxCell id="xyK2maIC5X1sYyK8I1Wq-6" value="이름" style="ellipse;whiteSpace=wrap;html=1;align=center;" vertex="1" parent="1">
          <mxGeometry x="200" y="300" width="100" height="40" as="geometry" />
        </mxCell>
        <mxCell id="xyK2maIC5X1sYyK8I1Wq-7" value="학번" style="ellipse;whiteSpace=wrap;html=1;align=center;fontStyle=4;" vertex="1" parent="1">
          <mxGeometry x="80" y="300" width="100" height="40" as="geometry" />
        </mxCell>
        <mxCell id="xyK2maIC5X1sYyK8I1Wq-8" value="학과" style="ellipse;whiteSpace=wrap;html=1;align=center;" vertex="1" parent="1">
          <mxGeometry x="320" y="300" width="100" height="40" as="geometry" />
        </mxCell>
        <mxCell id="xyK2maIC5X1sYyK8I1Wq-9" value="학년" style="ellipse;whiteSpace=wrap;html=1;align=center;" vertex="1" parent="1">
          <mxGeometry x="440" y="300" width="100" height="40" as="geometry" />
        </mxCell>
        <mxCell id="xyK2maIC5X1sYyK8I1Wq-10" value="전화번호&lt;br&gt;" style="ellipse;whiteSpace=wrap;html=1;align=center;" vertex="1" parent="1">
          <mxGeometry x="560" y="300" width="100" height="40" as="geometry" />
        </mxCell>
        <mxCell id="xyK2maIC5X1sYyK8I1Wq-12" value="주소" style="ellipse;whiteSpace=wrap;html=1;align=center;" vertex="1" parent="1">
          <mxGeometry x="680" y="300" width="100" height="40" as="geometry" />
        </mxCell>
        <mxCell id="xyK2maIC5X1sYyK8I1Wq-14" style="rounded=0;orthogonalLoop=1;jettySize=auto;html=1;entryX=0.5;entryY=0;entryDx=0;entryDy=0;exitX=0.5;exitY=1;exitDx=0;exitDy=0;" edge="1" parent="1" source="xyK2maIC5X1sYyK8I1Wq-2" target="xyK2maIC5X1sYyK8I1Wq-6">
          <mxGeometry relative="1" as="geometry">
            <mxPoint x="290" y="170" as="sourcePoint" />
            <mxPoint x="140" y="230" as="targetPoint" />
          </mxGeometry>
        </mxCell>
        <mxCell id="xyK2maIC5X1sYyK8I1Wq-15" style="rounded=0;orthogonalLoop=1;jettySize=auto;html=1;entryX=0.5;entryY=0;entryDx=0;entryDy=0;exitX=0.5;exitY=1;exitDx=0;exitDy=0;" edge="1" parent="1" source="xyK2maIC5X1sYyK8I1Wq-2" target="xyK2maIC5X1sYyK8I1Wq-8">
          <mxGeometry relative="1" as="geometry">
            <mxPoint x="340" y="170" as="sourcePoint" />
            <mxPoint x="260" y="230" as="targetPoint" />
          </mxGeometry>
        </mxCell>
        <mxCell id="xyK2maIC5X1sYyK8I1Wq-17" style="rounded=0;orthogonalLoop=1;jettySize=auto;html=1;entryX=0.5;entryY=0;entryDx=0;entryDy=0;exitX=0.5;exitY=1;exitDx=0;exitDy=0;" edge="1" parent="1" source="xyK2maIC5X1sYyK8I1Wq-2" target="xyK2maIC5X1sYyK8I1Wq-10">
          <mxGeometry relative="1" as="geometry">
            <mxPoint x="540" y="140" as="sourcePoint" />
            <mxPoint x="580" y="200" as="targetPoint" />
          </mxGeometry>
        </mxCell>
        <mxCell id="xyK2maIC5X1sYyK8I1Wq-18" style="rounded=0;orthogonalLoop=1;jettySize=auto;html=1;entryX=0.5;entryY=0;entryDx=0;entryDy=0;exitX=0.5;exitY=1;exitDx=0;exitDy=0;" edge="1" parent="1" source="xyK2maIC5X1sYyK8I1Wq-2" target="xyK2maIC5X1sYyK8I1Wq-12">
          <mxGeometry relative="1" as="geometry">
            <mxPoint x="630" y="140" as="sourcePoint" />
            <mxPoint x="670" y="200" as="targetPoint" />
          </mxGeometry>
        </mxCell>
        <mxCell id="xyK2maIC5X1sYyK8I1Wq-19" style="rounded=0;orthogonalLoop=1;jettySize=auto;html=1;entryX=0.5;entryY=0;entryDx=0;entryDy=0;exitX=0.5;exitY=1;exitDx=0;exitDy=0;" edge="1" parent="1" source="xyK2maIC5X1sYyK8I1Wq-2" target="xyK2maIC5X1sYyK8I1Wq-9">
          <mxGeometry relative="1" as="geometry">
            <mxPoint x="410" y="160" as="sourcePoint" />
            <mxPoint x="450" y="220" as="targetPoint" />
          </mxGeometry>
        </mxCell>
        <mxCell id="xyK2maIC5X1sYyK8I1Wq-20" style="rounded=0;orthogonalLoop=1;jettySize=auto;html=1;entryX=0.5;entryY=0;entryDx=0;entryDy=0;exitX=0.5;exitY=1;exitDx=0;exitDy=0;" edge="1" source="xyK2maIC5X1sYyK8I1Wq-21" target="xyK2maIC5X1sYyK8I1Wq-23" parent="1">
          <mxGeometry relative="1" as="geometry">
            <mxPoint x="1160" y="160" as="sourcePoint" />
          </mxGeometry>
        </mxCell>
        <mxCell id="xyK2maIC5X1sYyK8I1Wq-35" style="rounded=0;orthogonalLoop=1;jettySize=auto;html=1;exitX=0.5;exitY=0;exitDx=0;exitDy=0;entryX=1;entryY=1;entryDx=0;entryDy=0;" edge="1" parent="1" source="xyK2maIC5X1sYyK8I1Wq-21" target="xyK2maIC5X1sYyK8I1Wq-33">
          <mxGeometry relative="1" as="geometry" />
        </mxCell>
        <mxCell id="xyK2maIC5X1sYyK8I1Wq-21" value="과목" style="rounded=1;arcSize=10;whiteSpace=wrap;html=1;align=center;" vertex="1" parent="1">
          <mxGeometry x="1010" y="120" width="100" height="40" as="geometry" />
        </mxCell>
        <mxCell id="xyK2maIC5X1sYyK8I1Wq-22" value="과목명" style="ellipse;whiteSpace=wrap;html=1;align=center;" vertex="1" parent="1">
          <mxGeometry x="1030" y="300" width="100" height="40" as="geometry" />
        </mxCell>
        <mxCell id="xyK2maIC5X1sYyK8I1Wq-23" value="과목코드" style="ellipse;whiteSpace=wrap;html=1;align=center;fontStyle=4;" vertex="1" parent="1">
          <mxGeometry x="910" y="300" width="100" height="40" as="geometry" />
        </mxCell>
        <mxCell id="xyK2maIC5X1sYyK8I1Wq-24" value="담당교수" style="ellipse;whiteSpace=wrap;html=1;align=center;" vertex="1" parent="1">
          <mxGeometry x="1150" y="300" width="100" height="40" as="geometry" />
        </mxCell>
        <mxCell id="xyK2maIC5X1sYyK8I1Wq-25" value="강의실" style="ellipse;whiteSpace=wrap;html=1;align=center;" vertex="1" parent="1">
          <mxGeometry x="1270" y="300" width="100" height="40" as="geometry" />
        </mxCell>
        <mxCell id="xyK2maIC5X1sYyK8I1Wq-26" value="연락쳐" style="ellipse;whiteSpace=wrap;html=1;align=center;" vertex="1" parent="1">
          <mxGeometry x="1390" y="300" width="100" height="40" as="geometry" />
        </mxCell>
        <mxCell id="xyK2maIC5X1sYyK8I1Wq-27" value="조교" style="ellipse;whiteSpace=wrap;html=1;align=center;" vertex="1" parent="1">
          <mxGeometry x="1510" y="300" width="100" height="40" as="geometry" />
        </mxCell>
        <mxCell id="xyK2maIC5X1sYyK8I1Wq-28" style="rounded=0;orthogonalLoop=1;jettySize=auto;html=1;entryX=0.5;entryY=0;entryDx=0;entryDy=0;exitX=0.5;exitY=1;exitDx=0;exitDy=0;" edge="1" source="xyK2maIC5X1sYyK8I1Wq-21" target="xyK2maIC5X1sYyK8I1Wq-22" parent="1">
          <mxGeometry relative="1" as="geometry">
            <mxPoint x="1120" y="170" as="sourcePoint" />
            <mxPoint x="970" y="230" as="targetPoint" />
          </mxGeometry>
        </mxCell>
        <mxCell id="xyK2maIC5X1sYyK8I1Wq-29" style="rounded=0;orthogonalLoop=1;jettySize=auto;html=1;entryX=0.5;entryY=0;entryDx=0;entryDy=0;exitX=0.5;exitY=1;exitDx=0;exitDy=0;" edge="1" source="xyK2maIC5X1sYyK8I1Wq-21" target="xyK2maIC5X1sYyK8I1Wq-24" parent="1">
          <mxGeometry relative="1" as="geometry">
            <mxPoint x="1170" y="170" as="sourcePoint" />
            <mxPoint x="1090" y="230" as="targetPoint" />
          </mxGeometry>
        </mxCell>
        <mxCell id="xyK2maIC5X1sYyK8I1Wq-30" style="rounded=0;orthogonalLoop=1;jettySize=auto;html=1;entryX=0.5;entryY=0;entryDx=0;entryDy=0;exitX=0.5;exitY=1;exitDx=0;exitDy=0;" edge="1" source="xyK2maIC5X1sYyK8I1Wq-21" target="xyK2maIC5X1sYyK8I1Wq-26" parent="1">
          <mxGeometry relative="1" as="geometry">
            <mxPoint x="1370" y="140" as="sourcePoint" />
            <mxPoint x="1410" y="200" as="targetPoint" />
          </mxGeometry>
        </mxCell>
        <mxCell id="xyK2maIC5X1sYyK8I1Wq-31" style="rounded=0;orthogonalLoop=1;jettySize=auto;html=1;entryX=0.5;entryY=0;entryDx=0;entryDy=0;exitX=0.5;exitY=1;exitDx=0;exitDy=0;" edge="1" source="xyK2maIC5X1sYyK8I1Wq-21" target="xyK2maIC5X1sYyK8I1Wq-27" parent="1">
          <mxGeometry relative="1" as="geometry">
            <mxPoint x="1460" y="140" as="sourcePoint" />
            <mxPoint x="1500" y="200" as="targetPoint" />
          </mxGeometry>
        </mxCell>
        <mxCell id="xyK2maIC5X1sYyK8I1Wq-32" style="rounded=0;orthogonalLoop=1;jettySize=auto;html=1;entryX=0.5;entryY=0;entryDx=0;entryDy=0;exitX=0.5;exitY=1;exitDx=0;exitDy=0;" edge="1" source="xyK2maIC5X1sYyK8I1Wq-21" target="xyK2maIC5X1sYyK8I1Wq-25" parent="1">
          <mxGeometry relative="1" as="geometry">
            <mxPoint x="1240" y="160" as="sourcePoint" />
            <mxPoint x="1280" y="220" as="targetPoint" />
          </mxGeometry>
        </mxCell>
        <mxCell id="xyK2maIC5X1sYyK8I1Wq-33" value="수강신청" style="rhombus;whiteSpace=wrap;html=1;rounded=1;arcSize=10;" vertex="1" parent="1">
          <mxGeometry x="800" width="120" height="80" as="geometry" />
        </mxCell>
      </root>
    </mxGraphModel>
  </diagram>
</mxfile>
